<svg xmlns="http://www.w3.org/2000/svg" xmlns:xlink="http://www.w3.org/1999/xlink" viewBox="0 0 128 128" width="512" height="512"><defs><linearGradient id="linear-gradient" x1="103.297" y1="104.819" x2="23.181" y2="24.703" gradientUnits="userSpaceOnUse"><stop offset="0" stop-color="#4f67d2"/><stop offset="1" stop-color="#ff656f"/></linearGradient></defs><g id="Layer_2" data-name="Layer 2"><path d="M66.25,110.818a1.751,1.751,0,0,0,1.75,1.75c.049,0,.1,0,.147-.006a48.583,48.583,0,0,0,44.414-44.414,1.75,1.75,0,0,0-1.744-1.9H98.765A1.749,1.749,0,0,0,97.026,67.8,33.485,33.485,0,0,1,67.8,97.026a1.75,1.75,0,0,0-1.551,1.739Zm3.5-10.526A37.059,37.059,0,0,0,100.292,69.75h8.581A45.078,45.078,0,0,1,69.75,108.874Zm-8-71.056A1.75,1.75,0,0,1,60.2,30.974a33.293,33.293,0,0,0-20.045,9.888,1.75,1.75,0,0,1-2.512-2.437A36.831,36.831,0,0,1,58.25,27.708V19.126A45.078,45.078,0,0,0,19.127,58.25h8.581a36.41,36.41,0,0,1,3.278-10.371,1.75,1.75,0,1,1,3.143,1.54A32.978,32.978,0,0,0,30.974,60.2a1.749,1.749,0,0,1-1.738,1.551H17.183a1.75,1.75,0,0,1-1.744-1.9A48.583,48.583,0,0,1,59.853,15.438a1.751,1.751,0,0,1,1.9,1.744ZM95.725,19.08a1.75,1.75,0,0,1,2.452-.339c1.1.836,2.193,1.725,3.236,2.642A1.75,1.75,0,1,1,99.1,24.011c-.979-.86-2-1.694-3.039-2.479A1.751,1.751,0,0,1,95.725,19.08ZM60.639,72.606a9.3,9.3,0,0,1-5.246-5.246,1.75,1.75,0,0,0-1.629-1.111H37.3a1.75,1.75,0,0,0-1.73,2.008A28.935,28.935,0,0,0,59.742,92.433,1.75,1.75,0,0,0,61.75,90.7V74.236A1.75,1.75,0,0,0,60.639,72.606ZM58.25,88.586A25.464,25.464,0,0,1,39.414,69.75h13.22a12.826,12.826,0,0,0,5.616,5.616Zm68-30.336h-5.807a56.623,56.623,0,0,0-9.291-25.77,1.75,1.75,0,1,0-2.906,1.949,53.1,53.1,0,0,1,8.848,25.7,1.749,1.749,0,0,0,1.745,1.624H124.5v4.5h-5.661a1.749,1.749,0,0,0-1.745,1.624,53.479,53.479,0,0,1-49.22,49.219,1.751,1.751,0,0,0-1.624,1.746V124.5h-4.5v-5.661a1.751,1.751,0,0,0-1.624-1.746,52.7,52.7,0,0,1-28.017-10.5,7.887,7.887,0,0,0,2.929-3.424,48.313,48.313,0,0,0,24.814,9.387,1.751,1.751,0,0,0,1.9-1.744V98.765A1.75,1.75,0,0,0,60.2,97.026,33.485,33.485,0,0,1,30.974,67.8a1.749,1.749,0,0,0-1.738-1.551H17.183a1.75,1.75,0,0,0-1.744,1.9,48.317,48.317,0,0,0,9.388,24.813A7.9,7.9,0,0,0,21.4,95.891a52.714,52.714,0,0,1-10.5-28.017A1.749,1.749,0,0,0,9.161,66.25H3.5v-4.5H9.161a1.749,1.749,0,0,0,1.745-1.624,53.479,53.479,0,0,1,49.22-49.219A1.751,1.751,0,0,0,61.75,9.161V3.5h4.5V9.161a1.751,1.751,0,0,0,1.624,1.746,52.839,52.839,0,0,1,16.011,3.712A1.75,1.75,0,0,0,85.2,11.374,56.287,56.287,0,0,0,69.75,7.557V1.75A1.75,1.75,0,0,0,68,0H60a1.75,1.75,0,0,0-1.75,1.75V7.557A57.029,57.029,0,0,0,7.557,58.25H1.75A1.75,1.75,0,0,0,0,60v8a1.75,1.75,0,0,0,1.75,1.75H7.557A56.217,56.217,0,0,0,20.191,100c0,.023,0,.044,0,.067a7.759,7.759,0,0,0,7.75,7.75c.022,0,.044,0,.067,0A56.218,56.218,0,0,0,58.25,120.444v5.806A1.75,1.75,0,0,0,60,128h8a1.75,1.75,0,0,0,1.75-1.75v-5.807A57.029,57.029,0,0,0,120.443,69.75h5.807A1.75,1.75,0,0,0,128,68V60A1.75,1.75,0,0,0,126.25,58.25ZM19.127,69.75h8.581A37.059,37.059,0,0,0,58.25,100.292v8.582a44.864,44.864,0,0,1-22.616-9.689,7.76,7.76,0,0,0-6.818-6.818A44.86,44.86,0,0,1,19.127,69.75Zm4.561,30.313a4.319,4.319,0,0,1,4.25-4.25,4.255,4.255,0,0,1,4.25,4.25,4.319,4.319,0,0,1-4.25,4.25A4.255,4.255,0,0,1,23.687,100.063Zm44.46-84.624a1.751,1.751,0,0,0-1.9,1.744V29.235A1.75,1.75,0,0,0,67.8,30.974a33.058,33.058,0,0,1,13.67,4.762A7.745,7.745,0,0,0,78.687,39.3a28.705,28.705,0,0,0-10.429-3.732A1.75,1.75,0,0,0,66.25,37.3V53.764a1.75,1.75,0,0,0,1.111,1.629,9.3,9.3,0,0,1,5.246,5.246,1.75,1.75,0,0,0,1.629,1.111H90.7a1.75,1.75,0,0,0,1.73-2.008A28.7,28.7,0,0,0,88.7,49.313a7.758,7.758,0,0,0,3.563-2.785A33.1,33.1,0,0,1,97.026,60.2a1.749,1.749,0,0,0,1.738,1.551h12.053a1.75,1.75,0,0,0,1.744-1.9A48.583,48.583,0,0,0,68.147,15.438ZM83.5,38.594a4.526,4.526,0,0,1,1.9-.712,4.205,4.205,0,1,1-1.9.712ZM75.366,58.25a12.826,12.826,0,0,0-5.616-5.616V39.415a25.3,25.3,0,0,1,8.513,3.777,7.7,7.7,0,0,0,6.549,6.551,25.275,25.275,0,0,1,3.774,8.508Zm24.926,0a36.642,36.642,0,0,0-6.639-15.889,7.711,7.711,0,0,0-8.015-8.013A36.642,36.642,0,0,0,69.75,27.708V19.126A45.078,45.078,0,0,1,108.873,58.25ZM68,92.452a1.762,1.762,0,0,0,.258-.019A28.935,28.935,0,0,0,92.433,68.258,1.75,1.75,0,0,0,90.7,66.25H74.236a1.75,1.75,0,0,0-1.629,1.111,9.3,9.3,0,0,1-5.246,5.246,1.75,1.75,0,0,0-1.111,1.629V90.7A1.75,1.75,0,0,0,68,92.452Zm1.75-17.085a12.826,12.826,0,0,0,5.616-5.616h13.22A25.464,25.464,0,0,1,69.75,88.586Zm-8-38.068a1.75,1.75,0,0,0-2.008-1.731A28.935,28.935,0,0,0,35.567,59.742,1.75,1.75,0,0,0,37.3,61.75H53.764a1.75,1.75,0,0,0,1.629-1.111,9.3,9.3,0,0,1,5.246-5.246,1.75,1.75,0,0,0,1.111-1.629Zm-3.5,15.335a12.826,12.826,0,0,0-5.616,5.616H39.414A25.464,25.464,0,0,1,58.25,39.414Z" style="fill:url(#linear-gradient)"/></g></svg>
